<?xml version="1.0" encoding="UTF-8"?>
<!-- Generated by Pixelmator Pro 3.6.18 -->
<svg width="2400" height="2400" viewBox="0 0 2400 2400" xmlns="http://www.w3.org/2000/svg">
    <g id="Artwork">
        <g id="Apple-Muisc-cmyk-1-">
            <linearGradient id="linearGradient1" x1="441.658604" y1="1944.18625" x2="441.658604" y2="482.327673" gradientUnits="userSpaceOnUse">
                <stop offset="0" stop-color="#f03652" stop-opacity="1"/>
                <stop offset="1" stop-color="#f06478" stop-opacity="1"/>
            </linearGradient>
            <path id="R3" fill="url(#linearGradient1)" fill-rule="evenodd" stroke="none" d="M 1949.999878 919.21936 C 1949.999878 901.303955 1950.007813 883.389038 1949.899048 865.473633 C 1949.807251 850.382446 1949.632568 835.295166 1949.225098 820.208008 C 1948.33728 787.346436 1946.401489 754.197144 1940.562744 721.699585 C 1934.634155 688.700562 1924.954468 657.989014 1909.691162 628.008545 C 1894.698853 598.560303 1875.114136 571.615112 1851.749634 548.25061 C 1828.381592 524.882568 1801.431519 505.295532 1771.978516 490.302246 C 1742.014038 475.048828 1711.317993 465.372192 1678.337646 459.444214 C 1645.828247 453.600342 1612.666382 451.663208 1579.79248 450.774902 C 1564.705444 450.367188 1549.617676 450.192993 1534.526611 450.101196 C 1516.611328 449.992432 1498.696167 450 1480.781006 450 L 919.219238 450 C 901.303772 450 883.388672 449.992432 865.473206 450.101196 C 850.382141 450.192993 835.294617 450.367188 820.20752 450.774902 C 787.333435 451.663208 754.171936 453.600342 721.66217 459.444214 C 688.681702 465.372192 657.986084 475.048828 628.021301 490.302246 C 598.568115 505.295532 571.618286 524.882568 548.250244 548.25061 C 524.885864 571.615112 505.301178 598.560303 490.308807 628.008545 C 475.045441 657.989014 465.365753 688.700562 459.437469 721.699585 C 453.598694 754.197144 451.662598 787.346436 450.774811 820.208008 C 450.367126 835.295166 450.192688 850.382446 450.100861 865.473633 C 449.992035 883.389038 450.000153 901.303955 450.000153 919.21936 L 450.000153 1480.780762 C 450.000153 1498.696289 449.992035 1516.611328 450.100861 1534.526611 C 450.192688 1549.617676 450.367126 1564.705078 450.774811 1579.792236 C 451.662598 1612.653564 453.598694 1645.803101 459.437469 1678.300781 C 465.365753 1711.299561 475.045441 1742.01123 490.308807 1771.991577 C 505.301178 1801.439819 524.885864 1828.385254 548.250244 1851.749756 C 571.618286 1875.11792 598.568115 1894.70459 628.021301 1909.697998 C 657.986084 1924.951782 688.681702 1934.62793 721.66217 1940.556152 C 754.171936 1946.399902 787.333435 1948.33728 820.20752 1949.225342 C 835.294617 1949.632935 850.382141 1949.807373 865.473206 1949.89917 C 883.388672 1950.008057 901.303772 1950 919.219238 1950 L 1480.781006 1950 C 1498.696167 1950 1516.611328 1950.008057 1534.526611 1949.89917 C 1549.617676 1949.807373 1564.705444 1949.632935 1579.79248 1949.225342 C 1612.666382 1948.33728 1645.828247 1946.399902 1678.337646 1940.556152 C 1711.317993 1934.62793 1742.014038 1924.951782 1771.978516 1909.697998 C 1801.431519 1894.70459 1828.381592 1875.11792 1851.749634 1851.749756 C 1875.114136 1828.385254 1894.698853 1801.439819 1909.691162 1771.991577 C 1924.954468 1742.01123 1934.634155 1711.299561 1940.562744 1678.300781 C 1946.401489 1645.803101 1948.33728 1612.653564 1949.225098 1579.792236 C 1949.632568 1564.705078 1949.807251 1549.617676 1949.899048 1534.526611 C 1950.007813 1516.611328 1949.999878 1498.696289 1949.999878 1480.780762 L 1949.999878 919.21936 Z"/>
            <path id="Trazado" fill="#fffffe" stroke="none" d="M 1510.434326 679.161621 C 1506.810791 679.474854 1474.59021 685.196655 1470.722534 685.98584 L 1024.88916 775.933105 L 1024.71875 775.96814 C 1013.081238 778.444946 1003.989075 782.533569 996.922058 788.466187 C 988.421021 795.601685 983.707336 805.674438 981.925354 817.415405 C 981.544128 819.929565 980.907959 824.986816 980.907959 832.505249 C 980.907959 832.505249 980.916382 1287.995972 980.916992 1390.490112 C 980.916992 1403.513062 979.876587 1416.215576 971.052429 1426.997314 C 962.234131 1437.777588 951.290283 1441.044434 938.528748 1443.616089 C 928.826172 1445.57251 919.12207 1447.529053 909.419556 1449.485352 C 872.588623 1456.913574 848.627136 1461.942017 826.912598 1470.367065 C 806.164063 1478.417969 790.624146 1488.677734 778.251404 1501.644287 C 753.729004 1527.345703 743.733643 1562.231079 747.167847 1594.886963 C 750.099609 1622.753662 762.638489 1649.417358 784.161926 1669.154053 C 798.683838 1682.471436 816.85083 1692.603149 838.28418 1696.9104 C 860.503174 1701.379639 884.157349 1699.806885 918.723083 1692.835693 C 937.136353 1689.123047 954.381714 1683.321289 970.823181 1673.614136 C 987.058411 1664.029297 1000.994751 1651.251343 1011.860535 1635.661377 C 1022.762817 1620.023682 1029.833496 1602.65918 1033.712524 1584.198608 C 1037.709473 1565.17334 1038.690552 1547.934814 1038.690552 1528.942383 L 1038.693481 1044.968018 C 1038.693481 1019.034912 1046.039917 1012.200562 1066.943237 1007.150146 C 1066.943237 1007.150146 1437.540161 932.409912 1454.797852 929.045532 C 1478.939697 924.404297 1490.277466 931.295654 1490.277466 956.575806 L 1490.269531 1286.951416 C 1490.269531 1300.05481 1490.127563 1313.264771 1481.238037 1324.126099 C 1472.415649 1334.907104 1461.47644 1338.174683 1448.712769 1340.744751 C 1439.008789 1342.701172 1429.307617 1344.657593 1419.605103 1346.614136 C 1382.770996 1354.04248 1358.809814 1359.070923 1337.098145 1367.495728 C 1316.349609 1375.546875 1300.806763 1385.806396 1288.43396 1398.773804 C 1263.911499 1424.474609 1253.038208 1459.359741 1256.471069 1492.015869 C 1259.402588 1519.883301 1272.82251 1546.546875 1294.344482 1566.282959 C 1308.867798 1579.60083 1327.03479 1589.45459 1348.46814 1593.763184 C 1370.687134 1598.232422 1394.343018 1596.658081 1428.907349 1589.688354 C 1447.321899 1585.97583 1464.564331 1580.450806 1481.005737 1570.743896 C 1497.242432 1561.158691 1511.177246 1548.381104 1522.046021 1532.790771 C 1532.946899 1517.153442 1540.017456 1499.788818 1543.896606 1481.328125 C 1547.891846 1462.302002 1548.064819 1445.063477 1548.064819 1426.071045 L 1548.064819 718.581909 C 1548.064819 692.901611 1534.531616 677.080322 1510.434326 679.161621 Z"/>
        </g>
    </g>
</svg>
